<svg id="visual" viewBox="0 0 900 450" width="900" height="450" xmlns="http://www.w3.org/2000/svg" xmlns:xlink="http://www.w3.org/1999/xlink" version="1.1"><rect x="0" y="0" width="900" height="450" fill="#001220"></rect><defs><linearGradient id="grad1_0" x1="50%" y1="0%" x2="100%" y2="100%"><stop offset="10%" stop-color="#fbae3c" stop-opacity="1"></stop><stop offset="90%" stop-color="#fbae3c" stop-opacity="1"></stop></linearGradient></defs><defs><linearGradient id="grad1_1" x1="50%" y1="0%" x2="100%" y2="100%"><stop offset="10%" stop-color="#fbae3c" stop-opacity="1"></stop><stop offset="90%" stop-color="#cc5867" stop-opacity="1"></stop></linearGradient></defs><defs><linearGradient id="grad1_2" x1="50%" y1="0%" x2="100%" y2="100%"><stop offset="10%" stop-color="#593762" stop-opacity="1"></stop><stop offset="90%" stop-color="#cc5867" stop-opacity="1"></stop></linearGradient></defs><defs><linearGradient id="grad1_3" x1="50%" y1="0%" x2="100%" y2="100%"><stop offset="10%" stop-color="#593762" stop-opacity="1"></stop><stop offset="90%" stop-color="#001220" stop-opacity="1"></stop></linearGradient></defs><defs><linearGradient id="grad2_0" x1="0%" y1="0%" x2="50%" y2="100%"><stop offset="10%" stop-color="#fbae3c" stop-opacity="1"></stop><stop offset="90%" stop-color="#fbae3c" stop-opacity="1"></stop></linearGradient></defs><defs><linearGradient id="grad2_1" x1="0%" y1="0%" x2="50%" y2="100%"><stop offset="10%" stop-color="#cc5867" stop-opacity="1"></stop><stop offset="90%" stop-color="#fbae3c" stop-opacity="1"></stop></linearGradient></defs><defs><linearGradient id="grad2_2" x1="0%" y1="0%" x2="50%" y2="100%"><stop offset="10%" stop-color="#cc5867" stop-opacity="1"></stop><stop offset="90%" stop-color="#593762" stop-opacity="1"></stop></linearGradient></defs><defs><linearGradient id="grad2_3" x1="0%" y1="0%" x2="50%" y2="100%"><stop offset="10%" stop-color="#001220" stop-opacity="1"></stop><stop offset="90%" stop-color="#593762" stop-opacity="1"></stop></linearGradient></defs><g transform="translate(900, 0)"><path d="M0 427.5C-37.1 402.6 -74.1 377.6 -119.3 367.1C-164.4 356.6 -217.7 360.5 -241.6 332.5C-265.5 304.5 -259.9 244.7 -288 209.3C-316.1 173.8 -377.7 162.9 -406.6 132.1C-435.4 101.3 -431.5 50.7 -427.5 0L0 0Z" fill="#232745"></path><path d="M0 320.6C-27.8 301.9 -55.6 283.2 -89.5 275.3C-123.3 267.4 -163.3 270.4 -181.2 249.4C-199.1 228.4 -195 183.5 -216 156.9C-237.1 130.4 -283.3 122.2 -304.9 99.1C-326.6 76 -323.6 38 -320.6 0L0 0Z" fill="#96446e"></path><path d="M0 213.8C-18.5 201.3 -37.1 188.8 -59.6 183.6C-82.2 178.3 -108.9 180.2 -120.8 166.3C-132.7 152.3 -130 122.3 -144 104.6C-158 86.9 -188.9 81.5 -203.3 66.1C-217.7 50.7 -215.7 25.3 -213.7 0L0 0Z" fill="#f17c53"></path><path d="M0 106.9C-9.3 100.6 -18.5 94.4 -29.8 91.8C-41.1 89.1 -54.4 90.1 -60.4 83.1C-66.4 76.1 -65 61.2 -72 52.3C-79 43.5 -94.4 40.7 -101.6 33C-108.9 25.3 -107.9 12.7 -106.9 0L0 0Z" fill="#fbae3c"></path></g><g transform="translate(0, 450)"><path d="M0 -427.5C45.8 -416.7 91.6 -405.8 123.3 -379.5C155 -353.1 172.6 -311.3 212.2 -292.1C251.8 -272.8 313.5 -276.2 345.9 -251.3C378.2 -226.4 381.2 -173.3 389.9 -126.7C398.7 -80.1 413.1 -40.1 427.5 0L0 0Z" fill="#232745"></path><path d="M0 -320.6C34.4 -312.5 68.7 -304.4 92.5 -284.6C116.2 -264.8 129.4 -233.5 159.1 -219C188.9 -204.6 235.1 -207.1 259.4 -188.5C283.7 -169.8 285.9 -130 292.4 -95C299 -60.1 309.8 -30 320.6 0L0 0Z" fill="#96446e"></path><path d="M0 -213.7C22.9 -208.3 45.8 -202.9 61.6 -189.7C77.5 -176.6 86.3 -155.6 106.1 -146C125.9 -136.4 156.8 -138.1 172.9 -125.6C189.1 -113.2 190.6 -86.6 195 -63.3C199.3 -40.1 206.5 -20 213.8 0L0 0Z" fill="#f17c53"></path><path d="M0 -106.9C11.5 -104.2 22.9 -101.5 30.8 -94.9C38.7 -88.3 43.1 -77.8 53 -73C63 -68.2 78.4 -69 86.5 -62.8C94.6 -56.6 95.3 -43.3 97.5 -31.7C99.7 -20 103.3 -10 106.9 0L0 0Z" fill="#fbae3c"></path></g></svg>